# xmcd
#
# Track frame offsets:
#	150
#	15561
#	31252
#	46259
#	69113
#	87135
#	100802
#	114486
#	130702
#	144639
#	159960
#	177933
#	190835
#	210498
#	228371
#	245241
#	262772
#	281025
#	294359
#	311110
#	331050
#	345273
#
# Disc length: 4784 seconds
#
# Revision: 2
# Processed by: cddbd v1.5.2PL0 Copyright (c) Steve Scherf et al.
# Submitted via: audiograbber 1.83.01
#
DISCID=2612ae16
DTITLE=Various Artist - The Best Of Country Music Channel 2009 [Disc 2]
DYEAR=2009
DGENRE=Country
TTITLE0=Brooks and Dunn - Put A Girl In It
TTITLE1=Sugarland - All I Want To Do (Album Version)
TTITLE2=Dierks Bentley - Feel That Fire
TTITLE3=Alan Jackson - Good Time
TTITLE4=Carrie Underwood - Last Name
TTITLE5=Trace Adkins - Marry For Money
TTITLE6=Miranda Lambert - Gunpowder and Lead (Album Version)
TTITLE7=Joe Nichols - It Ain't No Crime (Album Version)
TTITLE8=Lady Antebellum - Lookin' For A Good Time
TTITLE9=Gary Allan - Learning How To Bend (Album Version)
TTITLE10=Little Big Town - Fine Line (Album Version)
TTITLE11=George Strait - Troubadour (Album Version)
TTITLE12=Sara Evans - Saints and Angels
TTITLE13=Brad Paisley - Waitin' On A Woman
TTITLE14=Jessica Harp - Boy Like Me (Album Version)
TTITLE15=Billy Currington - Don't
TTITLE16=Martina McBride - Ride
TTITLE17=Emerson Drive - Countrified Soul
TTITLE18=Kellie Pickler - Best Days Of Your Life
TTITLE19=Rodney Crowell - Sex And Gasoline
TTITLE20=Luke Bryan - Country Man
TTITLE21=Darius Rucker - Don't Think I Don't Think About It
EXTD=
EXTT0=
EXTT1=
EXTT2=
EXTT3=
EXTT4=
EXTT5=
EXTT6=
EXTT7=
EXTT8=
EXTT9=
EXTT10=
EXTT11=
EXTT12=
EXTT13=
EXTT14=
EXTT15=
EXTT16=
EXTT17=
EXTT18=
EXTT19=
EXTT20=
EXTT21=
PLAYORDER=
